<svg width="584" height="587" viewBox="0 0 584 587" fill="none" xmlns="http://www.w3.org/2000/svg">
<g clip-path="url(#clip0_14_12)">
<path fill-rule="evenodd" clip-rule="evenodd" d="M585.34 0H-1V586.34H585.34V0ZM196.477 137.106C197.466 137.53 198.442 137.974 199.404 138.435C212.991 144.953 222.928 154.822 228.14 166.973C235.405 183.918 236.069 211.52 214.027 233.54C197.18 250.372 176.73 257.968 147.717 258.169H147.586C114.953 257.944 89.8591 246.962 73.0007 225.532C57.9991 206.461 50.2608 179.925 50.0008 146.663L50 146.585L50.0008 146.506C50.2608 113.244 57.9991 86.7083 73.0007 67.6377C89.8591 46.2071 114.953 35.226 147.586 35H147.717C180.417 35.2268 205.795 46.1662 223.148 67.5153C231.71 78.0481 238.002 90.7484 242 105.487L223.232 110.494C219.933 98.5205 214.929 88.251 208.292 80.0848C194.757 63.4325 174.356 54.8892 147.652 54.6906C121.14 54.8876 101.089 63.39 88.0528 79.9625C75.8452 95.4807 69.5363 117.896 69.3009 146.585C69.5363 175.274 75.8452 197.688 88.0528 213.207C101.089 229.779 121.14 238.282 147.652 238.478C171.553 238.303 187.368 232.616 200.524 219.473C215.54 204.469 215.26 186.066 210.458 174.867C207.633 168.279 202.519 162.798 195.618 158.633C193.937 171.16 190.131 181.102 184.112 188.773C176.187 198.875 164.828 204.399 150.348 205.193C139.383 205.792 128.833 203.148 120.641 197.74C110.953 191.344 105.283 181.553 104.676 170.171C103.481 147.733 121.28 131.585 148.967 129.99C158.796 129.427 167.99 129.871 176.492 131.316C175.363 124.413 173.084 118.943 169.676 114.985C164.993 109.549 157.757 106.761 148.168 106.7C148.08 106.699 147.991 106.699 147.902 106.699C140.204 106.699 129.75 108.853 123.089 118.959L107.073 107.973C115.99 94.4431 130.476 87.0081 147.895 87.0081C148.027 87.0081 148.158 87.0081 148.29 87.0089C177.411 87.1949 194.754 105.366 196.477 137.106ZM123.948 169.102C124.569 180.768 137.176 186.215 149.311 185.531C161.192 184.879 174.677 180.217 176.976 151.505C170.812 150.157 164.033 149.453 156.785 149.453C154.583 149.453 152.341 149.518 150.056 149.65C130.104 150.799 123.487 160.451 123.948 169.102ZM387.523 137.106C386.534 137.53 385.558 137.974 384.596 138.435C371.009 144.953 361.072 154.822 355.86 166.973C348.595 183.918 347.931 211.52 369.973 233.54C386.82 250.372 407.27 257.968 436.283 258.169H436.414C469.047 257.944 494.141 246.962 510.999 225.532C526.001 206.461 533.739 179.925 533.999 146.663L534 146.585L533.999 146.506C533.739 113.244 526.001 86.7083 510.999 67.6377C494.141 46.2071 469.047 35.226 436.414 35H436.283C403.583 35.2268 378.205 46.1662 360.852 67.5153C352.29 78.0481 345.998 90.7484 342 105.487L360.768 110.494C364.067 98.5205 369.071 88.251 375.708 80.0848C389.243 63.4325 409.644 54.8892 436.348 54.6906C462.86 54.8876 482.911 63.39 495.947 79.9625C508.155 95.4807 514.464 117.896 514.699 146.585C514.464 175.274 508.155 197.688 495.947 213.207C482.911 229.779 462.86 238.282 436.348 238.478C412.447 238.303 396.632 232.616 383.476 219.473C368.46 204.469 368.74 186.066 373.542 174.867C376.367 168.279 381.481 162.798 388.382 158.633C390.063 171.16 393.869 181.102 399.888 188.773C407.813 198.875 419.172 204.399 433.652 205.193C444.617 205.792 455.167 203.148 463.359 197.74C473.047 191.344 478.717 181.553 479.324 170.171C480.519 147.733 462.72 131.585 435.033 129.99C425.204 129.427 416.01 129.871 407.508 131.316C408.637 124.413 410.916 118.943 414.324 114.985C419.007 109.549 426.243 106.761 435.832 106.7L435.886 106.699L435.957 106.699L436.098 106.699C443.796 106.699 454.25 108.853 460.911 118.959L476.927 107.973C468.01 94.4431 453.524 87.0081 436.105 87.0081H436.102C435.971 87.0081 435.841 87.0081 435.71 87.0089C406.589 87.1949 389.246 105.366 387.523 137.106ZM460.052 169.102C459.431 180.768 446.824 186.215 434.689 185.531C422.808 184.879 409.323 180.217 407.024 151.505C413.188 150.157 419.967 149.453 427.215 149.453C429.417 149.453 431.659 149.518 433.944 149.65C453.896 150.799 460.513 160.451 460.052 169.102ZM384.596 447.904C385.558 448.365 386.534 448.808 387.523 449.233C389.246 480.973 406.589 499.144 435.71 499.33C435.842 499.331 435.973 499.331 436.105 499.331C453.524 499.331 468.01 491.896 476.927 478.366L460.911 467.38C454.25 477.486 443.796 479.64 436.098 479.64L436.021 479.64C435.957 479.64 435.894 479.64 435.832 479.639C426.243 479.578 419.007 476.79 414.324 471.353C410.916 467.395 408.637 461.926 407.508 455.023C416.01 456.468 425.204 456.912 435.033 456.348C462.72 454.754 480.519 438.606 479.324 416.168C478.717 404.786 473.047 394.995 463.359 388.598C455.167 383.191 444.617 380.547 433.652 381.145C419.172 381.939 407.813 387.464 399.888 397.566C393.869 405.237 390.063 415.179 388.382 427.705C381.481 423.54 376.367 418.06 373.542 411.472C368.74 400.273 368.46 381.869 383.476 366.866C396.632 353.722 412.447 348.036 436.348 347.861C462.86 348.057 482.911 356.559 495.947 373.132C508.155 388.651 514.464 411.065 514.699 439.754C514.464 468.443 508.155 490.858 495.947 506.376C482.911 522.949 462.86 531.451 436.348 531.648C409.644 531.449 389.243 522.906 375.708 506.254C369.071 498.088 364.067 487.818 360.768 475.844L342 480.852C345.998 495.59 352.29 508.291 360.852 518.823C378.205 540.172 403.583 551.112 436.283 551.339H436.414C469.047 551.113 494.141 540.132 510.999 518.701C526.001 499.63 533.739 473.095 533.999 439.832L534 439.754L533.999 439.676C533.739 406.413 526.001 379.877 510.999 360.807C494.141 339.377 469.047 328.395 436.414 328.169H436.283C407.27 328.37 386.82 335.966 369.973 352.798C347.931 374.819 348.595 402.421 355.86 419.365C361.072 431.516 371.009 441.386 384.596 447.904ZM434.689 400.807C446.824 400.124 459.431 405.571 460.052 417.237C460.513 425.887 453.896 435.539 433.944 436.689C431.659 436.821 429.417 436.885 427.215 436.885C419.967 436.885 413.188 436.181 407.024 434.834C409.323 406.122 422.808 401.46 434.689 400.807ZM196.477 449.233C197.466 448.808 198.442 448.365 199.404 447.904C212.991 441.386 222.928 431.516 228.14 419.365C235.405 402.421 236.069 374.819 214.027 352.798C197.18 335.966 176.73 328.37 147.717 328.169H147.586C114.953 328.395 89.8591 339.377 73.0007 360.807C57.9991 379.877 50.2608 406.413 50.0008 439.676L50 439.754L50.0008 439.832C50.2608 473.095 57.9991 499.63 73.0007 518.701C89.8591 540.132 114.953 551.113 147.586 551.339H147.717C180.417 551.112 205.795 540.172 223.148 518.823C231.71 508.291 238.002 495.59 242 480.852L223.232 475.844C219.933 487.818 214.929 498.088 208.292 506.254C194.757 522.906 174.356 531.449 147.652 531.648C121.14 531.451 101.089 522.949 88.0528 506.376C75.8452 490.858 69.5363 468.443 69.3009 439.754C69.5363 411.065 75.8452 388.651 88.0528 373.132C101.089 356.559 121.14 348.057 147.652 347.861C171.553 348.036 187.368 353.722 200.524 366.866C215.54 381.869 215.26 400.273 210.458 411.472C207.633 418.06 202.519 423.54 195.618 427.705C193.937 415.179 190.131 405.237 184.112 397.566C176.187 387.464 164.828 381.939 150.348 381.145C139.383 380.547 128.833 383.191 120.641 388.598C110.953 394.995 105.283 404.786 104.676 416.168C103.481 438.606 121.28 454.754 148.967 456.348C158.796 456.912 167.99 456.468 176.492 455.023C175.363 461.926 173.084 467.395 169.676 471.353C164.993 476.79 157.757 479.578 148.168 479.639C148.08 479.64 147.991 479.64 147.902 479.64C140.204 479.64 129.75 477.486 123.089 467.38L107.073 478.366C115.99 491.896 130.476 499.331 147.895 499.331C148.027 499.331 148.158 499.331 148.29 499.33C177.411 499.144 194.754 480.973 196.477 449.233ZM123.948 417.237C124.569 405.571 137.176 400.124 149.311 400.807C161.192 401.46 174.677 406.122 176.976 434.834C170.812 436.181 164.033 436.885 156.785 436.885C154.583 436.885 152.341 436.821 150.056 436.689C130.104 435.539 123.487 425.887 123.948 417.237Z" fill="#fafafa"/>
</g>
<defs>
<clipPath id="clip0_14_12">
<rect width="584" height="586.34" fill="none"/>
</clipPath>
</defs>
</svg>
